<?xml version="1.0" encoding="UTF-8"?>
<svg width="256px" height="256px" viewBox="0 0 256 256" version="1.1" xmlns="http://www.w3.org/2000/svg" xmlns:xlink="http://www.w3.org/1999/xlink">
    <!-- Generator: Sketch 57.1 (83088) - https://sketch.com -->
    <title>Linkbuildr_256x256</title>
    <desc>Created with Sketch.</desc>
    <defs>
        <polygon id="path-1" points="0 0.4415 10.9423286 0.4415 10.9423286 34 0 34"></polygon>
        <polygon id="path-3" points="0.376694118 0.44918552 25.7679882 0.44918552 25.7679882 34.6153846 0.376694118 34.6153846"></polygon>
        <polygon id="path-5" points="0.180496296 0.2406 27.5100519 0.2406 27.5100519 26 0.180496296 26"></polygon>
        <polygon id="path-7" points="0.31295 0.225882353 13.96945 0.225882353 13.96945 7.76131765 0.31295 7.76131765"></polygon>
    </defs>
    <g id="Linkbuildr_256x256" stroke="none" stroke-width="1" fill="none" fill-rule="evenodd">
        <rect fill="#F5FCFF" x="0" y="0" width="256" height="256"></rect>
        <g id="Group-4" transform="translate(127.870702, 98.023845) rotate(-5.000000) translate(-127.870702, -98.023845) translate(26.370702, 49.023845)">
            <polygon id="Fill-1" fill="#1A237E" points="54.6631601 50.3899169 50.6721936 97.0413825 199.672194 2.04138249"></polygon>
            <polygon id="Fill-2" fill="#1A237E" points="202.93593 2.00083314 0.93592968 29.8220367 73.7936341 59.5228884 126.457856 89.0008331"></polygon>
            <polygon id="Fill-3" fill="#80D8FF" points="201.776473 0.652986949 39.7764732 44.1691925 49.7706152 95.6529869 68.0210454 55.4946781"></polygon>
        </g>
        <g id="Group-31-Copy" transform="translate(13.000000, 163.000000)">
            <g id="Group-3" transform="translate(0.567151, 4.000000)">
                <mask id="mask-2" fill="white">
                    <use xlink:href="#path-1"></use>
                </mask>
                <g id="Clip-2"></g>
                <path d="M-5.23809524e-05,1.215 L7.24423333,0.4415 L7.85185238,0.7795 L7.85185238,26.1665 C7.85185238,27.085 8.20647143,27.4715 8.81461429,27.4715 C9.22004286,27.4715 9.42275714,27.3745 9.5741381,27.23 L10.1314714,27.52 L10.9423286,32.4525 L10.5871857,32.9845 C9.5741381,33.661 8.25728095,34 6.88961429,34 C2.63418571,34 -5.23809524e-05,31.824 -5.23809524e-05,27.278 L-5.23809524e-05,1.215 Z" id="Fill-1" fill="#80D8FF" mask="url(#mask-2)"></path>
            </g>
            <path d="M13.5671506,32.215241 L13.5671506,14.0103457 L21.460401,13 L21.460401,31.0933636 C21.460401,32.0204391 21.8168874,32.4105476 22.4277059,32.4105476 C22.8352694,32.4105476 23.0390511,32.3126419 23.1917557,32.1667928 L23.7520238,32.4595004 L24.5671506,37.438052 L24.2101377,37.9750189 C23.1917557,38.657835 21.8679644,39 20.4930961,39 C16.2152598,39 13.5671506,36.8036841 13.5671506,32.215241" id="Fill-4" fill="#80D8FF"></path>
            <path d="M54.5671506,22.546804 L54.5671506,37 L46.7748474,37 L46.7748474,23.08351 C46.7748474,20.3494901 45.1166893,18.3960416 42.1501978,18.3960416 C39.3859079,18.3960416 37.4247072,20.2520448 37.4247072,23.08351 L37.4247072,37 L29.6833442,37 L29.6833442,19.9102292 C29.6833442,18.9822276 29.28102,18.5914369 28.6780534,18.5914369 C28.3261497,18.5914369 28.1255073,18.6893871 27.9243452,18.8363122 L27.3712793,18.5429668 L26.5671506,13.5626578 L26.9185346,13.0254468 C27.9243452,12.3418156 29.2311193,12 30.5888337,12 C33.2528023,12 35.3642249,13.1718671 36.319615,15.5161062 C38.0281936,13.4157326 40.6422616,12 44.1108787,12 C50.3443055,12 54.5671506,16.3461577 54.5671506,22.546804" id="Fill-6" fill="#80D8FF"></path>
            <g id="Group-10" transform="translate(59.567151, 4.000000)">
                <mask id="mask-4" fill="white">
                    <use xlink:href="#path-3"></use>
                </mask>
                <g id="Clip-9"></g>
                <path d="M8.0186549,21.1257692 L12.7516745,21.1257692 C15.2660275,21.1257692 17.0411647,19.7472624 17.0411647,17.6795023 C17.0411647,15.661629 15.3649294,14.2831222 12.9984196,14.2831222 C10.0400275,14.2831222 8.0186549,16.3009955 8.0186549,19.2061425 L8.0186549,21.1257692 Z M25.7679882,33.088948 L25.5212431,33.6300679 C24.5847333,34.3198303 23.2536353,34.6155882 21.8730863,34.6155882 C18.8657529,34.6155882 16.5481843,33.2859502 15.1676353,31.1688122 L11.1738314,25.4094231 L8.0186549,25.4094231 L8.0186549,34.0240724 L0.376694118,34.0240724 L0.376694118,1.23719457 L7.42728235,0.44918552 L8.0186549,0.793812217 L8.0186549,10.7380995 C9.99108627,9.55659502 12.3081451,8.81847285 14.7241059,8.81847285 C20.4925373,8.81847285 24.338498,12.0677376 24.338498,16.9413801 C24.338498,20.3387783 22.3166157,22.9965271 19.0130863,24.3750339 L20.5909294,26.5904186 C21.3306549,27.6242986 22.1687725,27.9689253 22.9574392,27.9689253 C23.4509294,27.9689253 24.042302,27.7719231 24.338498,27.526052 L24.7820275,27.7719231 L25.7679882,33.088948 Z" id="Fill-8" fill="#80D8FF" mask="url(#mask-4)"></path>
            </g>
            <path d="M108.275623,25.164325 C108.275623,21.5878838 105.924973,18.7956255 102.374942,18.7956255 C99.1612136,18.7956255 96.5709853,21.1957924 96.5709853,25.164325 C96.5709853,29.1328575 99.1130995,31.533531 102.374942,31.533531 C105.924973,31.533531 108.275623,28.7407661 108.275623,25.164325 M115.567151,25.164325 C115.567151,32.3663453 110.530044,38 103.574324,38 C100.360596,38 97.7698711,36.6773247 95.8512569,34.7173741 L95.8512569,37.4118629 L89.5671506,37.4118629 L89.5671506,4.78418284 L96.4266428,4 L97.0025247,4.34295335 L97.0025247,14.3367254 C98.8735207,13.0631882 101.079828,12.32865 103.574324,12.32865 C110.578159,12.32865 115.567151,17.9628112 115.567151,25.164325" id="Fill-11" fill="#1A237E"></path>
            <g id="Group-15" transform="translate(118.567151, 13.000000)">
                <mask id="mask-6" fill="white">
                    <use xlink:href="#path-5"></use>
                </mask>
                <g id="Clip-14"></g>
                <path d="M27.5100519,24.4526 L27.1595333,24.9841 C26.1562,25.6611 24.8023481,26.0001 23.4484963,26.0001 C21.0410148,26.0001 18.9353111,24.8876 17.9822741,22.5666 C16.3779778,24.5976 13.9207185,26.0001 10.4606444,26.0001 C4.44323704,26.0001 0.180496296,21.8896 0.180496296,15.5551 L0.180496296,1.2416 L7.95360741,0.2406 L7.95360741,15.1196 C7.95360741,17.8761 9.6082,19.6651 12.2153111,19.6651 C14.9738296,19.6651 16.6787185,17.8761 16.6787185,15.1196 L16.6787185,1.2416 L24.4010148,0.2406 L24.4010148,18.1666 C24.4010148,19.0851 24.8023481,19.4716 25.4038296,19.4716 C25.7553852,19.4716 25.9555333,19.3746 26.1059037,19.2301 L26.7079037,19.5201 L27.5100519,24.4526 Z" id="Fill-13" fill="#1A237E" mask="url(#mask-6)"></path>
            </g>
            <path d="M149.567151,32.215241 L149.567151,14.0103457 L157.460928,13 L157.460928,31.0933636 C157.460928,32.0204391 157.816887,32.4105476 158.428232,32.4105476 C158.835796,32.4105476 159.039578,32.3126419 159.191756,32.1667928 L159.75255,32.4595004 L160.567151,37.438052 L160.210138,37.9750189 C159.191756,38.657835 157.867964,39 156.493096,39 C152.21526,39 149.567151,36.8036841 149.567151,32.215241" id="Fill-16" fill="#1A237E"></path>
            <path d="M164.567151,4.78367627 L171.849056,4 L172.460401,4.34244677 L172.460401,30.0634415 C172.460401,30.9940254 172.816887,31.3856102 173.427706,31.3856102 C173.835796,31.3856102 174.039051,31.2873341 174.191756,31.140933 L174.752024,31.4347483 L175.567151,36.4321409 L175.210138,36.9711399 C174.191756,37.6565401 172.867964,38 171.493096,38 C167.21526,38 164.567151,35.7953723 164.567151,31.1895645 L164.567151,4.78367627 Z" id="Fill-18" fill="#1A237E"></path>
            <path d="M196.235889,25.164325 C196.235889,21.1957924 193.653587,18.7956255 190.225925,18.7956255 C186.550716,18.7956255 184.166658,21.5387458 184.166658,25.164325 C184.166658,28.7899042 186.550716,31.533531 190.225925,31.533531 C193.653587,31.533531 196.235889,29.181489 196.235889,25.164325 L196.235889,25.164325 Z M206.567151,36.4326475 L206.219454,36.9711399 C205.226182,37.6570466 203.935031,38 202.543731,38 C199.961429,38 197.924554,36.9711399 196.881464,34.8156503 C194.944738,36.7259562 192.312105,38 189.033896,38 C181.782599,38 176.567151,32.3663453 176.567151,25.164325 C176.567151,17.9628112 181.782599,12.32865 189.033896,12.32865 C191.616712,12.32865 193.901648,13.1118197 195.838888,14.3858635 L195.838888,4.78418284 L202.891428,4 L203.487699,4.34295335 L203.487699,30.0634415 C203.487699,30.9945319 203.835396,31.3861168 204.480971,31.3861168 C204.828668,31.3861168 205.027425,31.2878406 205.176364,31.140933 L205.772122,31.4352549 L206.567151,36.4326475 Z" id="Fill-20" fill="#1A237E"></path>
            <path d="M229.567151,13.3672348 L227.963168,18.7872001 L227.46202,19.0315656 C226.509995,18.5428346 225.557452,18.4453914 224.505405,18.4453914 C221.397979,18.4453914 219.392871,20.6911301 219.392871,23.9138258 L219.392871,37 L211.674576,37 L211.674576,19.9100695 C211.674576,18.9825915 211.273451,18.5918087 210.672281,18.5918087 C210.320908,18.5918087 210.120864,18.689252 209.920301,18.8361742 L209.368883,18.5428346 L208.567151,13.5626262 L208.918006,13.0254261 C209.920301,12.3418087 211.223181,12 212.576849,12 C215.483712,12 217.38828,13.2203126 218.190013,15.6619477 C219.894018,13.415704 222.199712,12 225.056304,12 C226.610017,12 227.963168,12.2933395 229.266566,12.8305396 L229.567151,13.3672348 Z" id="Fill-22" fill="#1A237E"></path>
            <polygon id="Fill-24" fill="#1A237E" points="16.5671506 8 28.5671506 0 16.8885708 4.07145553"></polygon>
            <polygon id="Fill-26" fill="#1A237E" points="11.5671506 3.23864266 29.5671506 1 22.7522728 8 18.0594213 5.62853186"></polygon>
            <g id="Group-30" transform="translate(15.567151, 0.000000)">
                <mask id="mask-8" fill="white">
                    <use xlink:href="#path-7"></use>
                </mask>
                <g id="Clip-29"></g>
                <polygon id="Fill-28" fill="#80D8FF" mask="url(#mask-8)" points="13.96945 0.225788235 2.69395 4.57637647 1.15495 7.76131765 0.31295 3.67755294"></polygon>
            </g>
        </g>
    </g>
</svg>